# xmcd
#
# Track frame offsets: 
#        150
#        16322
#        31515
#        48237
#        52630
#        72655
#        85002
#        92970
#        107762
#        120502
#        133120
#        144892
#        154272
#
# Disc length: 2169 seconds
#
# Revision: 6
# Processed by: cddbd v1.5.2PL0 Copyright (c) Steve Scherf et al.
# Submitted via: ExactAudioCopy v0.99pb4
#
DISCID=9e08770d
DTITLE=Maria Bethania - Diamante Verdadeiro CD 1 (live)
DYEAR=1999
DGENRE=MPB
TTITLE0=Senhora do Vento Norte and Gema (live)
TTITLE1=Vida (live)
TTITLE2=Cacilda (live)
TTITLE3=O tempo e o rio (live)
TTITLE4=Morena do mar, Suíte dos pescadores and Avarandado (live)
TTITLE5=Dois de fevereiro and Agradecer e abracar (live)
TTITLE6=Reconcavo (live)
TTITLE7=Luar do sertao and Azulao (live)
TTITLE8=O trenzinho caipira (live)
TTITLE9=Romaria (live)
TTITLE10=Assombracoes (live)
TTITLE11=As Ayabas and Iansan (live)
TTITLE12=Doce misterio da vida (live)
EXTD=BMG 7432171155-2
EXTT0=
EXTT1=
EXTT2=
EXTT3=
EXTT4=
EXTT5=
EXTT6=
EXTT7=
EXTT8=
EXTT9=
EXTT10=
EXTT11=
EXTT12=
PLAYORDER=
